<?xml version="1.0" encoding="UTF-8" standalone="no"?>
<svg
   xmlns:dc="http://purl.org/dc/elements/1.1/"
   xmlns:cc="http://creativecommons.org/ns#"
   xmlns:rdf="http://www.w3.org/1999/02/22-rdf-syntax-ns#"
   xmlns:svg="http://www.w3.org/2000/svg"
   xmlns="http://www.w3.org/2000/svg"
   xmlns:sodipodi="http://sodipodi.sourceforge.net/DTD/sodipodi-0.dtd"
   xmlns:inkscape="http://www.inkscape.org/namespaces/inkscape"
   height="11.125"
   version="1.1"
   viewBox="0 0 19.125 11.125"
   width="19.125"
   id="svg2"
   inkscape:version="0.48.4 r9939"
   sodipodi:docname="dusk.svg">
  <metadata
     id="metadata15">
    <rdf:RDF>
      <cc:Work
         rdf:about="">
        <dc:format>image/svg+xml</dc:format>
        <dc:type
           rdf:resource="http://purl.org/dc/dcmitype/StillImage" />
      </cc:Work>
    </rdf:RDF>
  </metadata>
  <sodipodi:namedview
     pagecolor="#ffffff"
     bordercolor="#666666"
     borderopacity="1"
     objecttolerance="10"
     gridtolerance="10"
     guidetolerance="10"
     inkscape:pageopacity="0"
     inkscape:pageshadow="2"
     inkscape:window-width="640"
     inkscape:window-height="480"
     id="namedview13"
     showgrid="false"
     fit-margin-top="0"
     fit-margin-left="0"
     fit-margin-right="0"
     fit-margin-bottom="0"
     inkscape:zoom="7.375"
     inkscape:cx="10.0625"
     inkscape:cy="4.0625"
     inkscape:window-x="57"
     inkscape:window-y="34"
     inkscape:window-maximized="0"
     inkscape:current-layer="svg2" />
  <title
     id="title4" />
  <desc
     id="desc6" />
  <defs
     id="defs8" />
  <g
     id="Page-1"
     style="fill:none;stroke:#000000;stroke-width:0.1"
     transform="translate(-5.9375,-8.9375)">
    <g
       id="icon-33-sunset"
       style="fill:#ffffff">
      <path
         d="M 20.792967,17 C 20.140039,14.691495 18.017554,13 15.5,13 c -2.517554,0 -4.640039,1.691495 -5.292967,4 l 10.585934,0 0,0 z M 15.5,9 C 15.223858,9 15,9.2157526 15,9.495389 l 0,2.009222 C 15,11.778207 15.231934,12 15.5,12 15.776142,12 16,11.784247 16,11.504611 L 16,9.495389 C 16,9.2217932 15.768066,9 15.5,9 l 0,0 z m 6.738058,2.790995 c -0.195262,-0.195262 -0.506114,-0.200993 -0.703846,-0.0033 l -1.420735,1.420735 c -0.193461,0.193461 -0.186291,0.514295 0.0033,0.703846 0.195263,0.195262 0.506114,0.200994 0.703847,0.0033 l 1.420734,-1.420735 c 0.193462,-0.193461 0.186291,-0.514294 -0.0033,-0.703846 l 0,0 z m -13.4761158,0 c -0.1952621,0.195262 -0.2009933,0.506113 -0.00326,0.703846 l 1.4207338,1.420735 c 0.193462,0.193461 0.514295,0.186291 0.703847,-0.0033 0.195262,-0.195262 0.200993,-0.506113 0.0033,-0.703846 L 9.4657885,11.787734 c -0.1934614,-0.193461 -0.5142947,-0.186291 -0.7038463,0.0033 l 0,0 z M 6.5082041,19 C 6.2275307,19 6,19.231934 6,19.5 l 0,0 C 6,19.776142 6.2266151,20 6.5082041,20 L 24.491796,20 C 24.772469,20 25,19.768066 25,19.5 l 0,0 C 25,19.223858 24.773385,19 24.491796,19 l -17.9835919,0 0,0 z"
         id="sunset"
         inkscape:connector-curvature="0" />
    </g>
  </g>
</svg>
