<?xml version="1.0" encoding="UTF-8" standalone="no"?>
<svg
   xmlns:dc="http://purl.org/dc/elements/1.1/"
   xmlns:cc="http://creativecommons.org/ns#"
   xmlns:rdf="http://www.w3.org/1999/02/22-rdf-syntax-ns#"
   xmlns:svg="http://www.w3.org/2000/svg"
   xmlns="http://www.w3.org/2000/svg"
   xmlns:sodipodi="http://sodipodi.sourceforge.net/DTD/sodipodi-0.dtd"
   xmlns:inkscape="http://www.inkscape.org/namespaces/inkscape"
   height="20.125"
   version="1.1"
   viewBox="0 0 20.125 20.125"
   width="20.125"
   id="svg2"
   inkscape:version="0.48.4 r9939"
   sodipodi:docname="nostars.svg">
  <metadata
     id="metadata15">
    <rdf:RDF>
      <cc:Work
         rdf:about="">
        <dc:format>image/svg+xml</dc:format>
        <dc:type
           rdf:resource="http://purl.org/dc/dcmitype/StillImage" />
      </cc:Work>
    </rdf:RDF>
  </metadata>
  <sodipodi:namedview
     pagecolor="#ffffff"
     bordercolor="#666666"
     borderopacity="1"
     objecttolerance="10"
     gridtolerance="10"
     guidetolerance="10"
     inkscape:pageopacity="0"
     inkscape:pageshadow="2"
     inkscape:window-width="753"
     inkscape:window-height="480"
     id="namedview13"
     showgrid="false"
     fit-margin-top="0"
     fit-margin-left="0"
     fit-margin-right="0"
     fit-margin-bottom="0"
     inkscape:zoom="20.85965"
     inkscape:cx="4.4957403"
     inkscape:cy="12.212004"
     inkscape:window-x="57"
     inkscape:window-y="34"
     inkscape:window-maximized="0"
     inkscape:current-layer="svg2" />
  <title
     id="title4" />
  <desc
     id="desc6" />
  <defs
     id="defs8" />
  <g
     id="Page-1"
     style="fill:none;stroke:#000000;stroke-width:0.1"
     transform="translate(-4.9375,-5.9375)">
    <g
       id="icon-39-stars"
       style="fill:#ffffff">
      <path
         d="M 22.714286,9.2380952 21.5,6 20.285714,9.2380952 18,10 20.285714,10.761905 21.5,14 22.714286,10.761905 25,10 22.714286,9.2380952 l 0,0 z m -2,11.9999998 L 19.5,18 18.285714,21.238095 16,22 18.285714,22.761905 19.5,26 20.714286,22.761905 23,22 l -2.285714,-0.761905 0,0 0,0 z M 13.459459,13.486487 11.5,8 9.5405405,13.486487 5,15 9.5405405,16.513513 11.5,22 13.459459,16.513513 18,15 l -4.540541,-1.513513 0,0 0,0 z"
         id="stars"
         inkscape:connector-curvature="0" />
    </g>
  </g>
  <rect
     style="fill:#ffffff;fill-opacity:1;fill-rule:evenodd;stroke:#000000;stroke-width:0.09892913;stroke-linecap:round;stroke-linejoin:round;stroke-miterlimit:4;stroke-opacity:1;stroke-dasharray:none"
     id="rect2986"
     width="27.752707"
     height="1.4229993"
     x="-12.232485"
     y="13.614895"
     transform="matrix(0.70888777,-0.7053213,0.62241889,0.7826843,0,0)"
     ry="0.71149963"
     rx="1.0314275" />
</svg>
