<?xml version="1.0" encoding="UTF-8" standalone="no"?>
<svg
   xmlns:dc="http://purl.org/dc/elements/1.1/"
   xmlns:cc="http://creativecommons.org/ns#"
   xmlns:rdf="http://www.w3.org/1999/02/22-rdf-syntax-ns#"
   xmlns:svg="http://www.w3.org/2000/svg"
   xmlns="http://www.w3.org/2000/svg"
   xmlns:sodipodi="http://sodipodi.sourceforge.net/DTD/sodipodi-0.dtd"
   xmlns:inkscape="http://www.inkscape.org/namespaces/inkscape"
   height="13.125"
   version="1.1"
   viewBox="0 0 19.183105 13.125"
   width="19.183105"
   id="svg2"
   inkscape:version="0.48.4 r9939"
   sodipodi:docname="sunrise.svg">
  <metadata
     id="metadata15">
    <rdf:RDF>
      <cc:Work
         rdf:about="">
        <dc:format>image/svg+xml</dc:format>
        <dc:type
           rdf:resource="http://purl.org/dc/dcmitype/StillImage" />
      </cc:Work>
    </rdf:RDF>
  </metadata>
  <sodipodi:namedview
     pagecolor="#ffffff"
     bordercolor="#666666"
     borderopacity="1"
     objecttolerance="10"
     gridtolerance="10"
     guidetolerance="10"
     inkscape:pageopacity="0"
     inkscape:pageshadow="2"
     inkscape:window-width="640"
     inkscape:window-height="480"
     id="namedview13"
     showgrid="false"
     fit-margin-top="0"
     fit-margin-left="0"
     fit-margin-right="0"
     fit-margin-bottom="0"
     inkscape:zoom="7.375"
     inkscape:cx="9.0625"
     inkscape:cy="7.0625"
     inkscape:window-x="596"
     inkscape:window-y="72"
     inkscape:window-maximized="0"
     inkscape:current-layer="svg2" />
  <title
     id="title4" />
  <desc
     id="desc6" />
  <defs
     id="defs8" />
  <g
     id="Page-1"
     style="fill:none;stroke:#000000;stroke-width:0.1"
     transform="translate(-6.9375,-9.9375)">
    <g
       id="icon-30-sunrise"
       style="fill:#ffffff">
      <path
         d="m 13.612386,20 -2.560912,0 c -0.01484,-0.164681 -0.02242,-0.331455 -0.02242,-0.5 0,-3.037566 2.462434,-5.5 5.5,-5.5 3.037566,0 5.5,2.462434 5.5,5.5 0,0.168545 -0.0076,0.335319 -0.02242,0.5 l 0,0 -2.560912,0 -2.916666,-2.5 -2.916667,2.5 0,0 0,0 z m 2.916667,-10 c -0.276143,0 -0.5,0.215753 -0.5,0.495389 l 0,2.009222 c 0,0.273596 0.231933,0.495389 0.5,0.495389 0.276142,0 0.5,-0.215753 0.5,-0.495389 l 0,-2.009222 C 17.029053,10.221793 16.797119,10 16.529053,10 l 0,0 0,0 z m 6.738057,2.790995 c -0.195262,-0.195262 -0.506113,-0.200993 -0.703846,-0.0033 L 21.14253,14.20843 c -0.193462,0.193461 -0.186291,0.514295 0.0033,0.703846 0.195262,0.195262 0.506114,0.200994 0.703846,0.0033 l 1.420735,-1.420735 c 0.193461,-0.193461 0.186291,-0.514294 -0.0033,-0.703846 l 0,0 0,0 z m 2.790995,6.738058 c 0,-0.276143 -0.215752,-0.5 -0.495389,-0.5 l -2.009222,0 c -0.273595,0 -0.495389,0.231933 -0.495389,0.5 0,0.276142 0.215753,0.5 0.495389,0.5 l 2.009222,0 c 0.273596,0 0.495389,-0.231934 0.495389,-0.5 l 0,0 0,0 z M 7,19.529053 c 0,0.276142 0.2157526,0.5 0.495389,0.5 l 2.009222,0 c 0.2735958,0 0.495389,-0.231934 0.495389,-0.5 0,-0.276143 -0.2157526,-0.5 -0.495389,-0.5 l -2.009222,0 C 7.2217932,19.029053 7,19.260986 7,19.529053 l 0,0 0,0 z M 7.5663096,22 c -0.2806734,0 -0.5082041,0.231934 -0.5082041,0.5 0,0.276142 0.2266151,0.5 0.5082041,0.5 l 6.0751294,0 1.166667,-1 1.749999,-1.5 1.75,1.5 1.166667,1 6.075129,0 c 0.280674,0 0.508204,-0.231934 0.508204,-0.5 0,-0.276142 -0.226615,-0.5 -0.508204,-0.5 l -5.491796,0 -3.5,-3 -3.499999,3 -5.4917964,0 0,0 z m 2.2246853,-9.209005 c -0.1952621,0.195262 -0.2009932,0.506113 -0.00326,0.703846 l 1.4207341,1.420735 c 0.193461,0.193461 0.514295,0.186291 0.703846,-0.0033 0.195262,-0.195262 0.200994,-0.506113 0.0033,-0.703846 L 10.49488,12.787695 c -0.193461,-0.193461 -0.5142941,-0.186291 -0.7038457,0.0033 l 0,0 0,0 z"
         id="sunrise"
         inkscape:connector-curvature="0" />
    </g>
  </g>
</svg>
